<svg width="24" height="24" viewBox="0 0 24 24" fill="none" xmlns="http://www.w3.org/2000/svg">
<path d="M18.4054 11.146C18.0193 10.2669 17.4581 9.47789 16.7568 8.82831L16.1781 8.29114C16.1585 8.2734 16.1348 8.26082 16.1092 8.25448C16.0837 8.24815 16.0569 8.24827 16.0314 8.25482C16.0059 8.26138 15.9823 8.27417 15.9628 8.29208C15.9433 8.30999 15.9285 8.33246 15.9196 8.35753L15.6611 9.10795C15.5 9.57873 15.2037 10.0596 14.7841 10.5323C14.7562 10.5625 14.7244 10.5706 14.7025 10.5726C14.6807 10.5746 14.6469 10.5706 14.617 10.5424C14.5892 10.5183 14.5753 10.482 14.5773 10.4458C14.6508 9.2347 14.2929 7.86865 13.5094 6.3819C12.8611 5.14662 11.9602 4.18294 10.8347 3.51099L10.0133 3.02211C9.90596 2.95773 9.76874 3.04222 9.77471 3.16897L9.81846 4.13466C9.84829 4.79455 9.77272 5.37798 9.59375 5.86284C9.375 6.45633 9.06079 7.00758 8.65909 7.5025C8.37953 7.84645 8.06268 8.15755 7.71449 8.42996C6.87589 9.08213 6.194 9.91779 5.71989 10.8744C5.24694 11.8393 5.00058 12.9016 5 13.9786C5 14.9282 5.18494 15.8477 5.55085 16.7148C5.90416 17.5496 6.41404 18.3073 7.05227 18.9459C7.69659 19.5897 8.44431 20.0967 9.27755 20.4488C10.1406 20.8149 11.0554 21 12 21C12.9446 21 13.8594 20.8149 14.7224 20.4508C15.5536 20.1008 16.3095 19.5903 16.9477 18.9479C17.592 18.3041 18.0971 17.5517 18.4491 16.7168C18.8145 15.852 19.0019 14.9211 19 13.9807C19 12.9989 18.8011 12.0453 18.4054 11.146Z" fill="#FF6939"/>
</svg>
