<svg width="24" height="24" viewBox="0 0 24 24" fill="none" xmlns="http://www.w3.org/2000/svg">
<g clip-path="url(#clip0_1114_2857)">
<path d="M16.6177 18.0319C15.078 19.2635 13.125 20 11 20C6.02944 20 2 15.9706 2 11C2 6.02944 6.02944 2 11 2C15.9706 2 20 6.02944 20 11C20 13.125 19.2635 15.078 18.0319 16.6177L21.7071 20.2929C22.0976 20.6834 22.0976 21.3166 21.7071 21.7071C21.3166 22.0976 20.6834 22.0976 20.2929 21.7071L16.6177 18.0319ZM11 18C14.866 18 18 14.866 18 11C18 7.13401 14.866 4 11 4C7.13401 4 4 7.13401 4 11C4 14.866 7.13401 18 11 18ZM10.8871 6.03385C11.436 5.97287 11.9304 6.36841 11.9914 6.91732C12.0524 7.46622 11.6569 7.96064 11.108 8.02162C9.4881 8.20159 8.20019 9.49035 8.02135 11.1104C7.96075 11.6594 7.46662 12.0552 6.91767 11.9946C6.36872 11.9341 5.97283 11.4399 6.03343 10.891C6.31496 8.34058 8.33704 6.31716 10.8871 6.03385Z" fill="black"/>
</g>
<defs>
<clipPath id="clip0_1114_2857">
<rect width="24" height="24" fill="white"/>
</clipPath>
</defs>
</svg>
