<?xml version="1.0" encoding="utf-8"?><svg xmlns="http://www.w3.org/2000/svg" xmlns:xlink="http://www.w3.org/1999/xlink"><symbol fill="none" viewBox="0 0 16 16" id="address-icon" xmlns="http://www.w3.org/2000/svg"><g clip-path="url(#aclip0_1127_2074)"><path d="M8.4 14.534l-.4.3-.4-.3C3.888 11.75 2 9.39 2 7.334c0-3.265 2.507-6 6-6s6 2.735 6 6c0 2.056-1.887 4.416-5.6 7.2zm-5.067-7.2c0 1.44 1.537 3.418 4.667 5.83 3.13-2.412 4.667-4.39 4.667-5.83 0-2.553-1.938-4.667-4.667-4.667-2.73 0-4.667 2.114-4.667 4.667zM8 8.667a1.333 1.333 0 110-2.666 1.333 1.333 0 010 2.666z" fill="#FF6939"/></g><defs><clipPath id="aclip0_1127_2074"><path fill="#fff" d="M0 0h16v16H0z"/></clipPath></defs></symbol><symbol fill="none" viewBox="0 0 24 24" id="basket-icon" xmlns="http://www.w3.org/2000/svg"><path fill-rule="evenodd" clip-rule="evenodd" d="M20.355 8.259a.75.75 0 01.622.923l-1.208 4.757a2.27 2.27 0 01-2.265 1.811H9.37a2.273 2.273 0 01-2.28-1.81L5.3 5.103a.758.758 0 00-.745-.603H2.76A.755.755 0 012 3.75c0-.414.34-.75.76-.75h1.794c1.087 0 2.022.757 2.236 1.808L7.094 6.3l13.261 1.959zM17.2 21a1.51 1.51 0 01-1.52-1.5c0-.828.68-1.5 1.52-1.5s1.52.672 1.52 1.5-.68 1.5-1.52 1.5zm-8.36 0a1.51 1.51 0 01-1.52-1.5c0-.828.68-1.5 1.52-1.5s1.52.672 1.52 1.5S9.68 21 8.84 21z" fill="#fff"/></symbol><symbol fill="none" viewBox="0 0 88 24" id="developer" xmlns="http://www.w3.org/2000/svg"><g clip-path="url(#cclip0_1127_2090)" fill-rule="evenodd" clip-rule="evenodd"><path d="M47.31 6.329c.212.221 2.117 5.497 2.316 6.148.198.698.479 1.367.834 1.993.66.156.722-.534.922-1.081 1.083-2.957 2.726-7.268 3.548-10.173.573-1.407.623-1.785-.41-1.785-1.034 0-.922.704-1.333 1.616-.361 1.732-1.756 5.392-2.266 7.072 0 .222 0 .222-.261.222-.86-2.501-1.856-5.562-2.827-8.037-.261-.482-.722-.586-1.033.495-.523 1.72-1.245 3.764-1.805 5.432 0 0-.673 2.11-.723 2.214a6.681 6.681 0 01-.772-1.94c-.772-1.994-1.444-4.143-2.104-6.136-.162-.378-.162-.599-.523-.82a2.065 2.065 0 00-1.133-.105c-1.02.17-.36 1.03-.149 1.668 1.245 3.504 2.627 7.71 4.01 11.045a.506.506 0 00.151.21.475.475 0 00.482.067.488.488 0 00.2-.16c.2-.403 2.727-7.945 2.876-7.945zM.2 1.653c-.052.217-.035.446.049.651.212.912-.411 11.306-.25 11.723a2.389 2.389 0 001.607.156c.249-.273.15-.534.15-.963 0-1.837.149-3.609.149-5.497.062-.704.112-1.186.112-1.615 0-.43 0-.378.1-.482.099-.105 1.73 2.865 1.892 3.19.311.64.921 1.616 1.332 2.371.623 1.186.934.378 1.083.105.361-.482 3.15-5.601 3.35-5.705.186.208.186 5.327.186 5.705 0 2.8-.311 3.074 1.382 2.957.523 0 .573-.43.523-.912v-2.853a129.164 129.164 0 01-.236-7.268c0-.274.1-1.303.1-1.459a.998.998 0 00-.586-.34.97.97 0 00-.66.119c-.36.221-.46.703-.722 1.029-1.046 1.94-2.453 4.142-3.436 5.978-.361.652-.361.43-.673 0-.672-1.029-1.543-2.8-2.154-3.83L2.253 2.566a4.474 4.474 0 00-.66-1.03C1.246 1.276.56 1.485.2 1.654zM65.898 7.682c.441-.376.964-.632 1.522-.746a3.303 3.303 0 011.678.095c1.644.756 1.855 3.295 1.133 4.533-.307.482-.75.853-1.268 1.06a2.566 2.566 0 01-1.62.1 3.652 3.652 0 01-1.445-.652v-4.39zm0-1.836a38.993 38.993 0 010-4.26c0-.586-.199-.69-.722-.481-1.245.547-1.245.325-1.07 1.51.099.6 0 7.542 0 8.52 0 1.927-.262 2.37 2.415 3.177a5.526 5.526 0 002.313.013 5.644 5.644 0 002.132-.938c2.627-2.253 1.905-8.61-2.889-8.127a9.196 9.196 0 00-1.245.156c-.162.052-.772.43-.846.43h-.088zM29.592 14.143c.195-.679.25-1.394.162-2.097a16.043 16.043 0 010-2.214c.149 0 .31.274.622.6.311.325 2.876 3.125 3.287 3.438.143.14.316.242.504.298.189.057.387.066.58.028.36 0 .933 0 1.132-.26 0-.379-.722-.978-1.033-1.303-.311-.326-.71-.743-1.07-1.186a22.518 22.518 0 01-2.217-2.357c0-.118 2.826-2.605 3.35-3.074.198-.222.41-.274.36-.6a3.196 3.196 0 00-1.967 0c-.249.118-1.955 1.733-2.415 2.163-.15.156-1.034 1.133-1.133 1.08-.15-.494 0-7.228-.1-7.606-.1-.378-1.855.221-1.805.873.097.457.147.924.15 1.393v9.313c0 .326-.1 1.303.111 1.46a3.3 3.3 0 001.482.051zM16.182 9.729c.573-.157 2.49.325 2.577.86.05.576.05 1.155 0 1.732-.36.482-2.838 1.446-3.66-.274a1.893 1.893 0 010-1.563c.12-.198.278-.368.464-.498.187-.13.398-.218.62-.257zm2.627-.651a4.4 4.4 0 00-1.594-.69 5.649 5.649 0 00-2.116.155 2.826 2.826 0 00-1.463 1.041 3.044 3.044 0 00-.585 1.748 3.052 3.052 0 00.523 1.768c.35.516.85.9 1.425 1.097a4.51 4.51 0 003.038 0c.212-.105.623-.378.772-.43.15-.052.212.377.411.482.2.104 1.133 0 1.394-.26.262-.261.312-.222.15-.6a2.806 2.806 0 01-.25-1.615V7.892a2.362 2.362 0 00-.36-1.563c-.984-2.045-6.91-1.237-6.437.495.473 1.732 1.245-.6 3.86-.273 1.406.156 1.257 1.563 1.257 2.527h-.025zM79.756 8.817h-4.27c.057-.534.29-1.032.66-1.406.403-.37.91-.594 1.444-.639.278-.024.558.011.824.103.265.092.51.238.72.431.211.182.378.414.486.677.108.263.155.549.136.834zm-4.382 1.394c.31-.156 4.98 0 5.827 0 .846 0 .46-2.905-1.084-4.09a4.016 4.016 0 00-4.432-.365 4.261 4.261 0 00-1.67 1.676 4.524 4.524 0 00-.559 2.35c-.03.798.148 1.59.514 2.292a4.345 4.345 0 001.566 1.693c1.382.977 5.092.925 5.552-.586.573-1.94-.771-.86-1.245-.651a4.31 4.31 0 01-1.245.325c-2.751.326-3.424-2.214-3.224-2.644zM56.687 8.816a2.268 2.268 0 01.677-1.454c.392-.379.906-.59 1.44-.59 1.07-.118 2.315.859 2.103 2.044h-4.22zm-.212 1.303h5.777c.672 0 .56-.43.51-.964a4.316 4.316 0 00-.624-2.034 4.07 4.07 0 00-1.504-1.446 3.853 3.853 0 00-1.99-.48 3.87 3.87 0 00-1.957.612 4.31 4.31 0 00-1.57 1.717 4.56 4.56 0 00-.485 2.321c-.052.795.119 1.59.493 2.284.374.694.934 1.259 1.612 1.624 1.755 1.133 5.204.651 5.515-.638 0-.378.25-1.303-.311-1.082a6.69 6.69 0 01-2.179.821 2.978 2.978 0 01-1.22-.083 3.062 3.062 0 01-1.096-.568c-.448-.378-1.17-1.511-.97-2.084zM84.439 14.195c.311-.325.261-.482.261-.964V11.93c0-1.72-.311-4.572 1.594-5.002.41-.104.51.26 1.033.156.309-.29.54-.657.673-1.068 0-.82-1.245-.977-2.378-.443-.362.17-.66.756-.922.808 0-.482.1-.69-.211-1.12-.4.04-.786.169-1.133.378-.51.26-.61.26-.51.911.099.652 0 5.12 0 6.187.049 1.629.049 1.576 1.593 1.46zM23.729 14.143v-.104c.144-1.323.182-2.656.112-3.986 0-1.029.249-2.696 1.332-3.022.872-.325.922.534 1.494 0 1.332-1.459-.46-2.045-1.544-1.563-1.083.482-.933.86-1.245.964a2.725 2.725 0 010-.638c0-.274-.112-.274-.211-.43-.4-.003-.792.11-1.133.326-.51.208-.673.26-.51.911a19.8 19.8 0 01.099 3.01v2.969c.112 1.615-.1 1.732 1.606 1.563z" fill="#221F20"/><path d="M46.95 15.876a27.048 27.048 0 00-6.027 1.498c-.61.273-1.245.43-1.855.703-1.245.482-2.415.912-3.648 1.407-.41.156-3.349 1.068-3.86 1.185-2.49.638-6.225 1.394-8.603.26-1.133-.586-1.245 1.238 1.332 1.89 1.508.275 3.054.204 4.532-.21 1.245-.273 2.74-.755 3.922-1.132 1.183-.378 2.578-.808 3.86-1.186.311-.117.56-.221.921-.325l1.905-.6c.361-.104.623-.26.934-.377l1.967-.482c.361-.105.623-.209.934-.326a35.766 35.766 0 017.93-.86c.66 0 1.644.17 2.317.274 1.245.156.97-.534.15-.977a12.558 12.558 0 00-6.712-.742z" fill="#F9CC46"/></g><defs><clipPath id="cclip0_1127_2090"><path fill="#fff" d="M0 0h88v24H0z"/></clipPath></defs></symbol><symbol fill="none" viewBox="0 0 24 24" id="features-icon-1" xmlns="http://www.w3.org/2000/svg"><path d="M18.405 11.146a6.99 6.99 0 00-1.648-2.318l-.579-.537a.16.16 0 00-.258.067l-.259.75c-.161.47-.457.952-.877 1.424a.124.124 0 01-.082.04.11.11 0 01-.085-.03.12.12 0 01-.04-.096c.074-1.211-.284-2.577-1.068-4.064-.648-1.235-1.549-2.2-2.674-2.871l-.822-.489c-.107-.064-.244.02-.238.147l.043.966c.03.66-.045 1.243-.224 1.728a5.754 5.754 0 01-.935 1.64c-.28.343-.596.655-.945.927a7.076 7.076 0 00-1.994 2.444 7.063 7.063 0 00-.17 5.84 7.034 7.034 0 003.728 3.735A6.929 6.929 0 0012 21a6.962 6.962 0 004.948-2.052A6.995 6.995 0 0019 13.98c0-.982-.199-1.936-.595-2.835z" fill="#FF6939"/></symbol><symbol fill="none" viewBox="0 0 24 24" id="features-icon-2" xmlns="http://www.w3.org/2000/svg"><path d="M16.5 4.206A9 9 0 113.005 12.29L3 12l.005-.292A9 9 0 0116.5 4.206zm-1.62 9.851a.9.9 0 00-1.273.013 2.25 2.25 0 01-3.214 0 .9.9 0 00-1.286 1.26 4.05 4.05 0 005.786 0 .9.9 0 00-.013-1.273zM9.31 9.3l-.115.006A.9.9 0 009.3 11.1l.114-.006A.9.9 0 009.31 9.3zm5.4 0l-.115.006A.9.9 0 0014.7 11.1l.114-.006A.9.9 0 0014.71 9.3z" fill="#FF6939"/></symbol><symbol fill="none" viewBox="0 0 24 24" id="features-icon-3" xmlns="http://www.w3.org/2000/svg"><path d="M6.309 4a.5.5 0 00-.447.276L5 6H3.5a.5.5 0 00-.5.5v3a.5.5 0 00.5.5h2.033l1.351 10.132a1 1 0 00.992.868h8.248a1 1 0 00.992-.868L18.466 10H20.5a.5.5 0 00.5-.5v-3a.5.5 0 00-.5-.5H19l-.862-1.724A.5.5 0 0017.691 4H6.309z" fill="#FF6939"/></symbol><symbol fill="none" viewBox="0 0 24 24" id="features-icon-4" xmlns="http://www.w3.org/2000/svg"><path d="M16.077 3.875c0-.497-.207-.974-.575-1.326A2.009 2.009 0 0014.115 2c-.52 0-1.019.198-1.387.55a1.834 1.834 0 00-.574 1.325c0 .497.207.974.574 1.325.368.352.867.55 1.387.55s1.02-.198 1.387-.55c.368-.351.575-.828.575-1.325zm-7.94 4.98a2.22 2.22 0 011.761-.594l-1.275 3.66c-.38 1.094.07 2.296 1.095 2.91l3.523 2.105-1.038 3.468c-.2.664.204 1.356.899 1.547.695.191 1.418-.195 1.618-.86l1.173-3.92c.241-.805-.106-1.665-.846-2.106l-2.321-1.386 1.263-3.219.208.48c.613 1.399 2.04 2.309 3.625 2.309h.87c.724 0 1.308-.559 1.308-1.25s-.584-1.25-1.308-1.25h-.87a1.307 1.307 0 01-1.206-.77l-.257-.585c-.597-1.371-1.802-2.418-3.29-2.855l-1.99-.586a5.009 5.009 0 00-1.406-.203c-1.267 0-2.484.48-3.38 1.34l-.947.902a1.213 1.213 0 000 1.769c.51.488 1.34.488 1.85 0l.945-.902-.004-.004zm-1.41 6.893h-2.42c-.723 0-1.307.56-1.307 1.25 0 .692.584 1.25 1.308 1.25h2.844c.776 0 1.48-.437 1.794-1.113l.47-1.012-.388-.234a3.775 3.775 0 01-1.55-1.754l-.751 1.614z" fill="#FF6939"/></symbol><symbol fill="none" viewBox="0 0 24 24" id="search-icon" xmlns="http://www.w3.org/2000/svg"><g clip-path="url(#hclip0_1114_2857)"><path d="M16.618 18.032a9 9 0 111.414-1.414l3.675 3.675a1 1 0 01-1.414 1.414l-3.675-3.675zM11 18a7 7 0 100-14 7 7 0 000 14zm-.113-11.966a1 1 0 01.221 1.988 3.502 3.502 0 00-3.087 3.088 1 1 0 11-1.988-.219 5.502 5.502 0 014.854-4.857z" fill="#000"/></g><defs><clipPath id="hclip0_1114_2857"><path fill="#fff" d="M0 0h24v24H0z"/></clipPath></defs></symbol></svg>