<?xml version="1.0" encoding="utf-8"?><svg xmlns="http://www.w3.org/2000/svg" xmlns:xlink="http://www.w3.org/1999/xlink"><symbol fill="none" viewBox="0 0 24 24" id="basket-icon" xmlns="http://www.w3.org/2000/svg"><path fill-rule="evenodd" clip-rule="evenodd" d="M20.355 8.259a.75.75 0 01.622.923l-1.208 4.757a2.27 2.27 0 01-2.265 1.811H9.37a2.273 2.273 0 01-2.28-1.81L5.3 5.103a.758.758 0 00-.745-.603H2.76A.755.755 0 012 3.75c0-.414.34-.75.76-.75h1.794c1.087 0 2.022.757 2.236 1.808L7.094 6.3l13.261 1.959zM17.2 21a1.51 1.51 0 01-1.52-1.5c0-.828.68-1.5 1.52-1.5s1.52.672 1.52 1.5-.68 1.5-1.52 1.5zm-8.36 0a1.51 1.51 0 01-1.52-1.5c0-.828.68-1.5 1.52-1.5s1.52.672 1.52 1.5S9.68 21 8.84 21z" fill="#fff"/></symbol><symbol fill="none" viewBox="0 0 24 24" id="features-icon-1" xmlns="http://www.w3.org/2000/svg"><path d="M18.405 11.146a6.99 6.99 0 00-1.648-2.318l-.579-.537a.16.16 0 00-.258.067l-.259.75c-.161.47-.457.952-.877 1.424a.124.124 0 01-.082.04.11.11 0 01-.085-.03.12.12 0 01-.04-.096c.074-1.211-.284-2.577-1.068-4.064-.648-1.235-1.549-2.2-2.674-2.871l-.822-.489c-.107-.064-.244.02-.238.147l.043.966c.03.66-.045 1.243-.224 1.728a5.754 5.754 0 01-.935 1.64c-.28.343-.596.655-.945.927a7.076 7.076 0 00-1.994 2.444 7.063 7.063 0 00-.17 5.84 7.034 7.034 0 003.728 3.735A6.929 6.929 0 0012 21a6.962 6.962 0 004.948-2.052A6.995 6.995 0 0019 13.98c0-.982-.199-1.936-.595-2.835z" fill="#FF6939"/></symbol><symbol fill="none" viewBox="0 0 24 24" id="features-icon-2" xmlns="http://www.w3.org/2000/svg"><path d="M16.5 4.206A9 9 0 113.005 12.29L3 12l.005-.292A9 9 0 0116.5 4.206zm-1.62 9.851a.9.9 0 00-1.273.013 2.25 2.25 0 01-3.214 0 .9.9 0 00-1.286 1.26 4.05 4.05 0 005.786 0 .9.9 0 00-.013-1.273zM9.31 9.3l-.115.006A.9.9 0 009.3 11.1l.114-.006A.9.9 0 009.31 9.3zm5.4 0l-.115.006A.9.9 0 0014.7 11.1l.114-.006A.9.9 0 0014.71 9.3z" fill="#FF6939"/></symbol><symbol fill="none" viewBox="0 0 24 24" id="features-icon-3" xmlns="http://www.w3.org/2000/svg"><path d="M6.309 4a.5.5 0 00-.447.276L5 6H3.5a.5.5 0 00-.5.5v3a.5.5 0 00.5.5h2.033l1.351 10.132a1 1 0 00.992.868h8.248a1 1 0 00.992-.868L18.466 10H20.5a.5.5 0 00.5-.5v-3a.5.5 0 00-.5-.5H19l-.862-1.724A.5.5 0 0017.691 4H6.309z" fill="#FF6939"/></symbol><symbol fill="none" viewBox="0 0 24 24" id="features-icon-4" xmlns="http://www.w3.org/2000/svg"><path d="M16.077 3.875c0-.497-.207-.974-.575-1.326A2.009 2.009 0 0014.115 2c-.52 0-1.019.198-1.387.55a1.834 1.834 0 00-.574 1.325c0 .497.207.974.574 1.325.368.352.867.55 1.387.55s1.02-.198 1.387-.55c.368-.351.575-.828.575-1.325zm-7.94 4.98a2.22 2.22 0 011.761-.594l-1.275 3.66c-.38 1.094.07 2.296 1.095 2.91l3.523 2.105-1.038 3.468c-.2.664.204 1.356.899 1.547.695.191 1.418-.195 1.618-.86l1.173-3.92c.241-.805-.106-1.665-.846-2.106l-2.321-1.386 1.263-3.219.208.48c.613 1.399 2.04 2.309 3.625 2.309h.87c.724 0 1.308-.559 1.308-1.25s-.584-1.25-1.308-1.25h-.87a1.307 1.307 0 01-1.206-.77l-.257-.585c-.597-1.371-1.802-2.418-3.29-2.855l-1.99-.586a5.009 5.009 0 00-1.406-.203c-1.267 0-2.484.48-3.38 1.34l-.947.902a1.213 1.213 0 000 1.769c.51.488 1.34.488 1.85 0l.945-.902-.004-.004zm-1.41 6.893h-2.42c-.723 0-1.307.56-1.307 1.25 0 .692.584 1.25 1.308 1.25h2.844c.776 0 1.48-.437 1.794-1.113l.47-1.012-.388-.234a3.775 3.775 0 01-1.55-1.754l-.751 1.614z" fill="#FF6939"/></symbol><symbol fill="none" viewBox="0 0 24 24" id="search-icon" xmlns="http://www.w3.org/2000/svg"><g clip-path="url(#fclip0_1114_2857)"><path d="M16.618 18.032a9 9 0 111.414-1.414l3.675 3.675a1 1 0 01-1.414 1.414l-3.675-3.675zM11 18a7 7 0 100-14 7 7 0 000 14zm-.113-11.966a1 1 0 01.221 1.988 3.502 3.502 0 00-3.087 3.088 1 1 0 11-1.988-.219 5.502 5.502 0 014.854-4.857z" fill="#000"/></g><defs><clipPath id="fclip0_1114_2857"><path fill="#fff" d="M0 0h24v24H0z"/></clipPath></defs></symbol></svg>