<svg width="16" height="16" viewBox="0 0 16 16" fill="none" xmlns="http://www.w3.org/2000/svg">
<g clip-path="url(#clip0_1127_2074)">
<path d="M8.4 14.534L8 14.834L7.6 14.534C3.8875 11.7496 2 9.39023 2 7.33398C2 4.06903 4.50712 1.33398 8 1.33398C11.4929 1.33398 14 4.06903 14 7.33398C14 9.39023 12.1125 11.7496 8.4 14.534ZM3.33333 7.33398C3.33333 8.77325 4.87046 10.7523 8 13.1633C11.1295 10.7523 12.6667 8.77325 12.6667 7.33398C12.6667 4.78076 10.7293 2.66732 8 2.66732C5.27065 2.66732 3.33333 4.78076 3.33333 7.33398ZM8 8.66732C7.26362 8.66732 6.66667 8.07036 6.66667 7.33398C6.66667 6.5976 7.26362 6.00065 8 6.00065C8.73638 6.00065 9.33333 6.5976 9.33333 7.33398C9.33333 8.07036 8.73638 8.66732 8 8.66732Z" fill="#FF6939"/>
</g>
<defs>
<clipPath id="clip0_1127_2074">
<rect width="16" height="16" fill="white"/>
</clipPath>
</defs>
</svg>
