<svg width="24" height="24" viewBox="0 0 24 24" fill="none" xmlns="http://www.w3.org/2000/svg">
<path fill-rule="evenodd" clip-rule="evenodd" d="M20.3553 8.25872C20.7976 8.32587 21.0857 8.75376 20.977 9.18217L19.7692 13.9386C19.5541 15.0076 18.5934 15.7707 17.5038 15.75L9.37127 15.7499C8.26706 15.7707 7.30645 15.0076 7.09152 13.9397L5.29926 5.10281C5.22817 4.75229 4.91628 4.5 4.55405 4.5H2.75999C2.34026 4.5 2 4.16421 2 3.75C2 3.33579 2.34026 3 2.75999 3H4.55405C5.64074 3 6.57641 3.75687 6.78968 4.80842L7.09422 6.3L20.3553 8.25872ZM17.1998 21C16.3603 21 15.6798 20.3284 15.6798 19.5C15.6798 18.6716 16.3603 18 17.1998 18C18.0393 18 18.7198 18.6716 18.7198 19.5C18.7198 20.3284 18.0393 21 17.1998 21ZM8.83991 21C8.00045 21 7.31993 20.3284 7.31993 19.5C7.31993 18.6716 8.00045 18 8.83991 18C9.67938 18 10.3599 18.6716 10.3599 19.5C10.3599 20.3284 9.67938 21 8.83991 21Z" fill="white"/>
</svg>
