<svg width="88" height="24" viewBox="0 0 88 24" fill="none" xmlns="http://www.w3.org/2000/svg">
<g clip-path="url(#clip0_1127_2090)">
<path fill-rule="evenodd" clip-rule="evenodd" d="M47.3103 6.32896C47.522 6.55039 49.4269 11.8257 49.6261 12.477C49.8244 13.1748 50.1046 13.8441 50.4603 14.4699C51.1201 14.6262 51.1824 13.9358 51.3816 13.3888C52.4648 10.432 54.1083 6.12055 54.93 3.21587C55.5027 1.80912 55.5525 1.43138 54.5191 1.43138C53.4857 1.43138 53.5978 2.13476 53.1869 3.04654C52.8259 4.77893 51.4314 8.43908 50.9209 10.1194C50.9209 10.3408 50.9209 10.3408 50.6595 10.3408C49.8004 7.83991 48.8043 4.77893 47.8332 2.30409C47.5718 1.82215 47.1111 1.71794 46.7998 2.79906C46.2769 4.51842 45.5548 6.56342 44.9945 8.23068C44.9945 8.23068 44.3222 10.3408 44.2724 10.445C43.9163 9.84607 43.6556 9.1906 43.5004 8.50421C42.7285 6.51131 42.0562 4.36211 41.3963 2.36922C41.2345 1.99148 41.2345 1.77005 40.8734 1.54861C40.5115 1.40831 40.1202 1.37232 39.7404 1.44441C38.7195 1.61374 39.3793 2.47342 39.591 3.11167C40.836 6.61552 42.218 10.8227 43.6001 14.1573C43.6324 14.2399 43.685 14.3121 43.7525 14.3667C43.8201 14.4213 43.9002 14.4563 43.9847 14.4682C44.0693 14.4801 44.1554 14.4684 44.2343 14.4344C44.3132 14.4004 44.3822 14.3453 44.4342 14.2745C44.6334 13.8707 47.1609 6.32896 47.3103 6.32896Z" fill="#221F20"/>
<path fill-rule="evenodd" clip-rule="evenodd" d="M0.199056 1.65291C0.14759 1.8699 0.165072 2.09852 0.248858 2.30419C0.460516 3.21597 -0.162008 13.6103 -0.000151765 14.0271C0.503812 14.2642 1.06884 14.3192 1.60596 14.1834C1.85497 13.9099 1.75537 13.6494 1.75537 13.2195C1.75537 11.3829 1.90477 9.61147 1.90477 7.72278C1.96702 7.0194 2.01683 6.53746 2.01683 6.10762C2.01683 5.67778 2.01683 5.72988 2.11643 5.62568C2.21603 5.52147 3.84705 8.49128 4.0089 8.81692C4.32017 9.45516 4.93024 10.4321 5.3411 11.1875C5.96363 12.3729 6.27489 11.5653 6.4243 11.2918C6.78536 10.8098 9.57427 5.6908 9.77348 5.5866C9.96023 5.79501 9.96023 10.914 9.96023 11.2918C9.96023 14.0922 9.64897 14.3658 11.3422 14.2485C11.8652 14.2485 11.915 13.8187 11.8652 13.3368C11.8652 12.425 11.8652 11.396 11.8652 10.4842C11.7282 8.16564 11.6286 5.52147 11.6286 3.21597C11.6286 2.94243 11.7282 1.91342 11.7282 1.75712C11.5758 1.57742 11.3693 1.45753 11.1429 1.41727C10.9165 1.377 10.6838 1.41878 10.4832 1.53568C10.1221 1.75712 10.0225 2.23906 9.76103 2.5647C8.71519 4.50549 7.30828 6.70679 6.32469 8.54338C5.96363 9.19465 5.96363 8.97322 5.65237 8.54338C4.98004 7.51437 4.10851 5.74291 3.49843 4.7139L2.25339 2.5647C2.08032 2.19121 1.85822 1.84485 1.59351 1.53568C1.2449 1.27517 0.56012 1.48358 0.199056 1.65291Z" fill="#221F20"/>
<path fill-rule="evenodd" clip-rule="evenodd" d="M65.8983 7.68237C66.339 7.30621 66.8617 7.04989 67.42 6.93626C67.9783 6.82263 68.5548 6.85521 69.0981 7.0311C70.7416 7.78657 70.9532 10.3265 70.2311 11.564C69.9235 12.0462 69.4805 12.4167 68.9631 12.6244C68.4457 12.832 67.8795 12.8665 67.3426 12.7232C66.8224 12.6158 66.3301 12.3938 65.8983 12.0719V7.68237ZM65.8983 5.84578C65.8207 4.42717 65.8207 3.00507 65.8983 1.58646C65.8983 1.00031 65.6991 0.896106 65.1762 1.10451C63.9311 1.65158 63.9311 1.43015 64.1054 2.61547C64.205 3.21464 64.1054 10.1572 64.1054 11.1341C64.1054 13.0619 63.844 13.5048 66.5208 14.3123C67.283 14.4796 68.0697 14.4839 68.8336 14.3249C69.5974 14.166 70.3226 13.8471 70.9657 13.3875C73.5927 11.1341 72.8706 4.77769 68.0771 5.25963C67.6593 5.28329 67.2434 5.33551 66.8321 5.41594C66.6702 5.46804 66.0602 5.84578 65.9855 5.84578H65.8983Z" fill="#221F20"/>
<path fill-rule="evenodd" clip-rule="evenodd" d="M29.5918 14.1435C29.7865 13.4642 29.8416 12.7495 29.7536 12.0464C29.7026 11.3092 29.7026 10.5692 29.7536 9.83207C29.903 9.83207 30.0649 10.1056 30.3761 10.4312C30.6874 10.7569 33.2522 13.5573 33.6631 13.87C33.8064 14.0095 33.9792 14.1118 34.1674 14.1683C34.3556 14.2249 34.554 14.2343 34.7463 14.1956C35.1073 14.1956 35.6801 14.1956 35.8793 13.9351C35.8793 13.5573 35.1571 12.9582 34.8459 12.6325C34.5346 12.3069 34.1362 11.8901 33.7751 11.4472C32.9832 10.7181 32.2426 9.93018 31.5589 9.08961C31.5589 8.97239 34.3852 6.48452 34.9081 6.01561C35.1073 5.79417 35.319 5.74207 35.2692 5.41644C34.6284 5.20962 33.9428 5.20962 33.302 5.41644C33.053 5.53366 31.3473 7.14882 30.8866 7.57866C30.7372 7.73497 29.8532 8.71188 29.7536 8.65977C29.6042 8.16481 29.7536 1.43064 29.654 1.05291C29.5544 0.675168 27.7989 1.27434 27.8487 1.92561C27.9463 2.38321 27.9964 2.85049 27.9981 3.31934V12.6325C27.9981 12.9582 27.8985 13.9351 28.1102 14.0914C28.5946 14.2209 29.1001 14.2387 29.5918 14.1435Z" fill="#221F20"/>
<path fill-rule="evenodd" clip-rule="evenodd" d="M16.1821 9.72877C16.7548 9.57246 18.6721 10.0544 18.7593 10.5884C18.8091 11.1647 18.8091 11.7445 18.7593 12.3208C18.3982 12.8028 15.9206 13.7667 15.0989 12.0473C14.9881 11.8031 14.9307 11.5361 14.9307 11.2658C14.9307 10.9954 14.9881 10.7285 15.0989 10.4842C15.2184 10.2857 15.3767 10.1157 15.5634 9.98552C15.75 9.85533 15.9608 9.76784 16.1821 9.72877ZM18.8091 9.0775C18.3253 8.74219 17.7842 8.50778 17.2154 8.38715C16.5067 8.30504 15.7896 8.358 15.0989 8.54345C14.5173 8.71771 14.0045 9.0826 13.6359 9.58446C13.2673 10.0863 13.0624 10.6987 13.0513 11.3315C13.0401 11.9642 13.2233 12.5841 13.574 13.0998C13.9246 13.6155 14.4242 13.9999 14.9993 14.1965C15.9841 14.5478 17.0524 14.5478 18.0372 14.1965C18.2488 14.0923 18.6597 13.8188 18.8091 13.7667C18.9585 13.7146 19.0208 14.1444 19.22 14.2486C19.4192 14.3528 20.353 14.2486 20.6144 13.9881C20.8759 13.7276 20.9257 13.7667 20.7638 13.3889C20.5229 12.8905 20.4359 12.3261 20.5148 11.7738V7.89218C20.58 7.34257 20.4516 6.78695 20.1538 6.32912C19.1702 4.28413 13.2437 5.0917 13.7169 6.82409C14.19 8.55648 14.9619 6.22492 17.5765 6.55056C18.9834 6.70686 18.834 8.11361 18.834 9.0775H18.8091Z" fill="#221F20"/>
<path fill-rule="evenodd" clip-rule="evenodd" d="M79.7562 8.81734H75.4857C75.543 8.28252 75.7762 7.78518 76.1456 7.41059C76.5488 7.0407 77.0553 6.81685 77.5899 6.77234C77.8683 6.74828 78.1485 6.78317 78.4138 6.87493C78.679 6.96668 78.9239 7.11343 79.1337 7.30639C79.345 7.48821 79.5116 7.72017 79.6199 7.98297C79.7282 8.24578 79.7749 8.53183 79.7562 8.81734ZM75.3737 10.2111C75.6849 10.0548 80.3539 10.2111 81.2005 10.2111C82.0471 10.2111 81.6612 7.30639 80.1173 6.12107C79.4866 5.62913 78.7357 5.33384 77.9514 5.2693C77.1671 5.20476 76.3814 5.37359 75.6849 5.7563C74.9884 6.13902 74.4096 6.72001 74.0152 7.4322C73.6209 8.14439 73.4271 8.95874 73.4563 9.78123C73.4267 10.5801 73.6044 11.3724 73.9705 12.0741C74.3365 12.7759 74.8773 13.3608 75.5355 13.767C76.9175 14.7439 80.6278 14.6918 81.0884 13.1809C81.6612 11.2401 80.3165 12.3212 79.8434 12.5296C79.4455 12.7002 79.0262 12.8099 78.5983 12.8552C75.8468 13.1809 75.1745 10.6409 75.3737 10.2111Z" fill="#221F20"/>
<path fill-rule="evenodd" clip-rule="evenodd" d="M56.6868 8.81616C56.7304 8.25982 56.9722 7.74093 57.3642 7.36221C57.7562 6.98349 58.2698 6.77255 58.8033 6.77116C59.8741 6.65393 61.1191 7.63084 60.9075 8.81616H56.6868ZM56.4751 10.1187C56.7366 10.1187 61.5798 10.1187 62.2521 10.1187C62.9245 10.1187 62.8124 9.68886 62.7626 9.15482C62.7262 8.43158 62.5109 7.73064 62.1377 7.12064C61.7646 6.51064 61.2463 6.0125 60.6338 5.67503C60.0213 5.33756 59.3355 5.17232 58.6436 5.1955C57.9517 5.21868 57.2774 5.42949 56.6868 5.80728C56.0226 6.21774 55.4795 6.81179 55.1171 7.52415C54.7547 8.2365 54.587 9.03959 54.6324 9.84517C54.5796 10.6404 54.7508 11.4344 55.1247 12.1289C55.4987 12.8234 56.0591 13.388 56.7366 13.7528C58.4921 14.886 61.9409 14.4041 62.2521 13.1146C62.2521 12.7368 62.5011 11.812 61.9409 12.0334C61.2641 12.4337 60.5274 12.7112 59.762 12.854C59.354 12.9111 58.9393 12.8829 58.5418 12.7711C58.1443 12.6593 57.7719 12.4661 57.4462 12.2028C56.998 11.825 56.2759 10.6918 56.4751 10.1187Z" fill="#221F20"/>
<path fill-rule="evenodd" clip-rule="evenodd" d="M84.4388 14.1952C84.75 13.8696 84.7002 13.7133 84.7002 13.2313V11.9288C84.7002 10.2094 84.389 7.35686 86.2939 6.92702C86.7048 6.82282 86.8044 7.18753 87.3273 7.08333C87.6357 6.79389 87.8673 6.42595 87.9996 6.01524C87.9996 5.19464 86.7546 5.03833 85.6216 5.57238C85.2605 5.74171 84.9617 6.32785 84.7002 6.37996C84.7002 5.89801 84.7998 5.68961 84.4886 5.25977C84.0895 5.2998 83.7032 5.42859 83.3556 5.6375C82.8451 5.89801 82.7455 5.89801 82.8451 6.54929C82.9447 7.20056 82.8451 11.6683 82.8451 12.7364C82.8949 14.3646 82.8949 14.3125 84.4388 14.1952Z" fill="#221F20"/>
<path fill-rule="evenodd" clip-rule="evenodd" d="M23.7289 14.1431V14.0389C23.8734 12.716 23.9109 11.3826 23.841 10.0531C23.841 9.0241 24.09 7.35684 25.1732 7.0312C26.0447 6.70557 26.0945 7.56525 26.6672 7.0312C27.9994 5.57235 26.2066 4.9862 25.1234 5.46815C24.0402 5.95009 24.1896 6.32783 23.8783 6.43203C23.8533 6.22009 23.8533 6.00573 23.8783 5.79378C23.8783 5.52025 23.7663 5.52025 23.6667 5.36394C23.2675 5.36054 22.8752 5.47328 22.5337 5.68958C22.0232 5.89799 21.8613 5.95009 22.0232 6.60136C22.1327 7.59996 22.166 8.60611 22.1228 9.61024V12.58C22.2349 14.1952 22.0232 14.3124 23.7289 14.1431Z" fill="#221F20"/>
<path fill-rule="evenodd" clip-rule="evenodd" d="M46.9493 15.8756C44.8939 16.1409 42.873 16.6432 40.9232 17.3735C40.3132 17.6471 39.6782 17.8034 39.0681 18.0769C37.8231 18.5589 36.6527 18.9887 35.4201 19.4837C35.0093 19.64 32.071 20.5517 31.5605 20.669C29.0704 21.3072 25.3352 22.0627 22.9572 20.9295C21.8242 20.3433 21.7122 22.1669 24.2894 22.8182C25.7966 23.0943 27.3432 23.0232 28.8214 22.6098C30.0664 22.3362 31.5605 21.8543 32.7433 21.4766C33.9261 21.0988 35.3205 20.669 36.6029 20.2912C36.9142 20.174 37.1632 20.0698 37.5243 19.9656L39.4292 19.3664C39.7902 19.2622 40.0517 19.1059 40.363 18.9887L42.3301 18.5068C42.6912 18.4025 42.9527 18.2983 43.2639 18.1811C45.8707 17.5993 48.5295 17.3111 51.1949 17.3214C51.8548 17.3214 52.8384 17.4908 53.5107 17.595C54.7557 17.7513 54.4818 17.0609 53.6601 16.6181C51.5235 15.7616 49.2098 15.5056 46.9493 15.8756Z" fill="#F9CC46"/>
</g>
<defs>
<clipPath id="clip0_1127_2090">
<rect width="88" height="24" fill="white"/>
</clipPath>
</defs>
</svg>
