<svg width="24" height="24" viewBox="0 0 24 24" fill="none" xmlns="http://www.w3.org/2000/svg">
<path d="M16.0769 3.8748C16.0769 3.37757 15.8703 2.90071 15.5024 2.54912C15.1345 2.19752 14.6356 2 14.1154 2C13.5952 2 13.0962 2.19752 12.7284 2.54912C12.3605 2.90071 12.1538 3.37757 12.1538 3.8748C12.1538 4.37203 12.3605 4.84889 12.7284 5.20049C13.0962 5.55208 13.5952 5.7496 14.1154 5.7496C14.6356 5.7496 15.1345 5.55208 15.5024 5.20049C15.8703 4.84889 16.0769 4.37203 16.0769 3.8748ZM8.13678 8.85474C8.54135 8.46807 9.09303 8.24934 9.66923 8.24934C9.74687 8.24934 9.82452 8.25324 9.89808 8.26106L8.62308 11.9208C8.24303 13.0145 8.69255 14.2175 9.71827 14.8307L13.2409 16.9359L12.2029 20.4043C12.0026 21.0683 12.4072 21.7596 13.1019 21.951C13.7966 22.1424 14.52 21.7557 14.7202 21.0917L15.893 17.1703C16.1341 16.3657 15.7868 15.5064 15.0471 15.065L12.726 13.6785L13.9887 10.46L14.1971 10.9405C14.8101 12.3387 16.2363 13.2488 17.8219 13.2488H18.6923C19.4156 13.2488 20 12.6903 20 11.9989C20 11.3076 19.4156 10.7491 18.6923 10.7491H17.8219C17.2947 10.7491 16.8166 10.4444 16.6163 9.97962L16.3589 9.39375C15.7623 8.0228 14.5567 6.97604 13.0692 6.53858L11.0791 5.95271C10.6255 5.81991 10.1514 5.7496 9.67332 5.7496C8.40649 5.7496 7.1887 6.23002 6.29375 7.08931L5.34567 7.99155C4.83486 8.47978 4.83486 9.27267 5.34567 9.7609C5.85649 10.2491 6.68606 10.2491 7.19687 9.7609L8.14087 8.85865L8.13678 8.85474ZM6.72692 15.7485H4.30769C3.58437 15.7485 3 16.3071 3 16.9984C3 17.6897 3.58437 18.2483 4.30769 18.2483H7.15192C7.92837 18.2483 8.63125 17.8108 8.94591 17.1351L9.41587 16.1235L9.02764 15.8892C8.33118 15.4749 7.7892 14.8612 7.47885 14.1354L6.72692 15.7485Z" fill="#FF6939"/>
</svg>
