<svg width="24" height="24" viewBox="0 0 24 24" fill="none" xmlns="http://www.w3.org/2000/svg">
<path d="M16.5002 4.2059C17.8576 4.98967 18.9868 6.11438 19.776 7.46867C20.5652 8.82297 20.987 10.3599 20.9997 11.9273C21.0124 13.4947 20.6154 15.0383 19.8482 16.4051C19.081 17.772 17.9701 18.9148 16.6255 19.7204C15.2809 20.526 13.7492 20.9664 12.182 20.9982C10.6148 21.0299 9.06657 20.6518 7.69046 19.9012C6.31434 19.1507 5.15811 18.0538 4.33622 16.7191C3.51432 15.3844 3.05527 13.8581 3.0045 12.2915L3 11.9999L3.0045 11.7083C3.0549 10.154 3.5072 8.63927 4.31729 7.3118C5.12738 5.98432 6.26763 4.88941 7.62686 4.1338C8.98609 3.37818 10.5179 2.98766 12.073 3.0003C13.6281 3.01293 15.1534 3.4283 16.5002 4.2059ZM14.8801 14.0573C14.7097 13.8902 14.4799 13.7977 14.2412 13.8001C14.0026 13.8024 13.7746 13.8995 13.6075 14.0699C13.398 14.2838 13.1479 14.4537 12.8719 14.5697C12.5959 14.6857 12.2995 14.7455 12.0001 14.7455C11.7007 14.7455 11.4043 14.6857 11.1283 14.5697C10.8523 14.4537 10.6022 14.2838 10.3927 14.0699C10.2247 13.9034 9.99804 13.8097 9.76157 13.8091C9.52509 13.8084 9.29787 13.9009 9.12901 14.0664C8.96015 14.232 8.86323 14.4573 8.8592 14.6937C8.85517 14.9302 8.94436 15.1587 9.10748 15.3299C9.48456 15.7147 9.93463 16.0204 10.4313 16.2291C10.928 16.4377 11.4614 16.5452 12.0001 16.5452C12.5389 16.5452 13.0722 16.4377 13.5689 16.2291C14.0656 16.0204 14.5157 15.7147 14.8927 15.3299C15.0598 15.1595 15.1523 14.9296 15.15 14.691C15.1476 14.4523 15.0506 14.2244 14.8801 14.0573ZM9.30908 9.2999L9.19478 9.3062C8.96699 9.3333 8.75814 9.44635 8.61091 9.62225C8.46367 9.79816 8.38917 10.0236 8.40261 10.2526C8.41605 10.4816 8.51643 10.6969 8.68324 10.8543C8.85004 11.0118 9.07068 11.0996 9.30008 11.0999L9.41438 11.0936C9.64217 11.0665 9.85101 10.9535 9.99825 10.7776C10.1455 10.6016 10.22 10.3762 10.2065 10.1472C10.1931 9.91816 10.0927 9.70294 9.92592 9.54547C9.75911 9.38799 9.53847 9.30016 9.30908 9.2999ZM14.7091 9.2999L14.5948 9.3062C14.3671 9.3333 14.1582 9.44635 14.011 9.62225C13.8637 9.79816 13.7892 10.0236 13.8027 10.2526C13.8161 10.4816 13.9165 10.6969 14.0833 10.8543C14.2501 11.0118 14.4707 11.0996 14.7001 11.0999L14.8144 11.0936C15.0422 11.0665 15.2511 10.9535 15.3983 10.7776C15.5455 10.6016 15.6201 10.3762 15.6066 10.1472C15.5932 9.91816 15.4928 9.70294 15.326 9.54547C15.1592 9.38799 14.9385 9.30016 14.7091 9.2999Z" fill="#FF6939"/>
</svg>
